<svg width="19" height="19" viewBox="0 0 19 19" fill="none" xmlns="http://www.w3.org/2000/svg">
<path d="M4 5.00012H3C2.46957 5.00012 1.96086 5.21084 1.58579 5.58591C1.21071 5.96098 1 6.46969 1 7.00012V16.0001C1 16.5306 1.21071 17.0393 1.58579 17.4143C1.96086 17.7894 2.46957 18.0001 3 18.0001H12C12.5304 18.0001 13.0391 17.7894 13.4142 17.4143C13.7893 17.0393 14 16.5306 14 16.0001V15.0001" stroke="url(#paint0_linear_102_252)" stroke-width="2" stroke-linecap="round" stroke-linejoin="round"/>
<path d="M13 3.00011L16 6.00011M17.385 4.58511C17.7788 4.19126 18.0001 3.65709 18.0001 3.10011C18.0001 2.54312 17.7788 2.00895 17.385 1.61511C16.9912 1.22126 16.457 1 15.9 1C15.343 1 14.8088 1.22126 14.415 1.61511L6 10.0001V13.0001H9L17.385 4.58511Z" stroke="url(#paint1_linear_102_252)" stroke-width="2" stroke-linecap="round" stroke-linejoin="round"/>
<defs>
<linearGradient id="paint0_linear_102_252" x1="7.5" y1="5.00012" x2="7.5" y2="18.0001" gradientUnits="userSpaceOnUse">
<stop stop-color="#CC20BA"/>
<stop offset="1" stop-color="#9C1598"/>
</linearGradient>
<linearGradient id="paint1_linear_102_252" x1="12.0001" y1="1" x2="12.0001" y2="13.0001" gradientUnits="userSpaceOnUse">
<stop stop-color="#CC20BA"/>
<stop offset="1" stop-color="#9C1598"/>
</linearGradient>
</defs>
</svg>
