<svg width="149" height="45" viewBox="0 0 149 45" fill="none" xmlns="http://www.w3.org/2000/svg">
<g clip-path="url(#clip0_42_662)">
<mask id="mask0_42_662" style="mask-type:luminance" maskUnits="userSpaceOnUse" x="0" y="0" width="149" height="45">
<path d="M149 0H0V45H149V0Z" fill="white"/>
</mask>
<g mask="url(#mask0_42_662)">
<path d="M80.124 43.5159V0.815918H93.727V31.6209H113.308V43.5159H80.124Z" fill="white"/>
<path d="M39.459 43.5159V0.815918H62.029C65.3637 0.815918 68.19 1.46658 70.508 2.76792C72.826 4.06925 74.595 5.87892 75.815 8.19692C77.035 10.5149 77.645 13.2193 77.645 16.3099C77.645 19.4413 76.974 22.1659 75.632 24.4839C74.3307 26.8019 72.5007 28.5913 70.142 29.8519C67.7833 31.1126 65.018 31.7429 61.846 31.7429H53.062V43.5159H39.459ZM53.062 20.3359H58.308C60.0973 20.3359 61.4393 20.0716 62.334 19.5429C63.2693 18.9736 63.737 17.8553 63.737 16.1879C63.737 14.5206 63.2693 13.4023 62.334 12.8329C61.4393 12.2636 60.0973 11.9789 58.308 11.9789H53.062V20.3359Z" fill="white"/>
<path d="M18.0491 44.0648C15.9345 44.0648 13.7588 43.9022 11.5221 43.5769C9.28547 43.2515 6.96747 42.7635 4.56813 42.1128L0.786133 41.0759L2.92113 30.7058L8.16713 31.3768C9.50913 31.5395 11.1155 31.7022 12.9861 31.8648C14.8975 32.0275 16.8901 32.1088 18.9641 32.1088C20.2655 32.1088 21.1601 31.9868 21.6481 31.7428C22.1361 31.4988 22.3801 31.1938 22.3801 30.8278C22.3801 30.5432 22.2785 30.2788 22.0751 30.0348C21.8718 29.7908 21.3025 29.4858 20.3671 29.1198C19.4725 28.7538 17.9475 28.2455 15.7921 27.5948C12.4575 26.5782 9.81413 25.5005 7.86213 24.3618C5.91013 23.2232 4.52747 21.8405 3.71413 20.2138C2.9008 18.5465 2.49413 16.4318 2.49413 13.8698C2.49413 10.6572 3.28713 8.05452 4.87313 6.06185C6.4998 4.06918 8.6958 2.60518 11.4611 1.66985C14.2671 0.734512 17.4391 0.266846 20.9771 0.266846C22.8478 0.266846 24.7795 0.40918 26.7721 0.693848C28.7648 0.937847 30.7371 1.30385 32.6891 1.79185L36.0441 2.64585L34.1531 12.9548L28.3581 12.3448C27.5855 12.2635 26.5688 12.2025 25.3081 12.1618C24.0475 12.0805 22.4615 12.0398 20.5501 12.0398C19.0455 12.0398 17.9678 12.1618 17.3171 12.4058C16.6665 12.6498 16.3411 13.0565 16.3411 13.6258C16.3411 13.9105 16.4835 14.1748 16.7681 14.4188C17.0528 14.6628 17.7238 14.9475 18.7811 15.2728C19.8791 15.5982 21.6075 16.0658 23.9661 16.6758C27.2601 17.4485 29.8221 18.4245 31.6521 19.6038C33.5228 20.7425 34.8241 22.1048 35.5561 23.6908C36.3288 25.2768 36.7151 27.1272 36.7151 29.2418C36.7151 32.6172 35.8815 35.4028 34.2141 37.5988C32.5875 39.7948 30.3508 41.4215 27.5041 42.4789C24.6981 43.5362 21.5465 44.0648 18.0491 44.0648Z" fill="white"/>
<path d="M148.301 9.10596H143.725V20.2163H134.819V9.10596H130.221V0.815918H148.301V9.10596Z" fill="#FDC500"/>
<path d="M125.521 20.2163H116.615V0.815918H125.521V20.2163Z" fill="#FDC500"/>
<path d="M148.301 32.4055H143.725V43.5159H134.819V32.4055H130.221V24.1155H148.301V32.4055Z" fill="white"/>
<path d="M125.521 43.5159H116.615V24.1155H125.521V43.5159Z" fill="white"/>
</g>
</g>
<defs>
<clipPath id="clip0_42_662">
<rect width="149" height="45" fill="white"/>
</clipPath>
</defs>
</svg>
